solid 
   facet normal -8.324771e-01 4.806308e-01 2.756373e-01
      outer loop
         vertex -4.162385e-01 3.213144e+01 2.944996e+01
         vertex -1.573787e+01 2.211708e+01 6.378187e-01
         vertex -4.162385e-01 1.518477e+01 5.900000e+01
      endloop
   endfacet
   facet normal -8.324770e-01 4.806309e-01 2.756373e-01
      outer loop
         vertex -1.573787e+01 2.211708e+01 6.378187e-01
         vertex -2.702290e+01 2.570857e+00 6.378187e-01
         vertex -4.162385e-01 1.518477e+01 5.900000e+01
      endloop
   endfacet
   facet normal -8.324770e-01 4.806309e-01 2.756374e-01
      outer loop
         vertex -4.162385e-01 1.518477e+01 5.900000e+01
         vertex -2.702290e+01 2.570857e+00 6.378187e-01
         vertex -1.335851e+01 -7.231910e+00 5.900000e+01
      endloop
   endfacet
   facet normal -8.324770e-01 4.806309e-01 2.756374e-01
      outer loop
         vertex -2.702290e+01 2.570857e+00 6.378187e-01
         vertex -2.803476e+01 -1.570525e+01 2.944996e+01
         vertex -1.335851e+01 -7.231910e+00 5.900000e+01
      endloop
   endfacet
   facet normal 4.046754e-08 -9.612617e-01 2.756374e-01
      outer loop
         vertex -2.780020e+01 -1.653109e+01 2.908416e+01
         vertex -1.167407e+01 -2.468794e+01 6.378187e-01
         vertex -1.294227e+01 -7.952856e+00 5.900000e+01
      endloop
   endfacet
   facet normal 0.000000e+00 -9.612617e-01 2.756374e-01
      outer loop
         vertex -1.167407e+01 -2.468794e+01 6.378187e-01
         vertex 1.128502e+01 -2.468794e+01 6.378187e-01
         vertex -1.294227e+01 -7.952856e+00 5.900000e+01
      endloop
   endfacet
   facet normal 0.000000e+00 -9.612617e-01 2.756374e-01
      outer loop
         vertex -1.294227e+01 -7.952856e+00 5.900000e+01
         vertex 1.128502e+01 -2.468794e+01 6.378187e-01
         vertex 1.294227e+01 -7.952856e+00 5.900000e+01
      endloop
   endfacet
   facet normal -1.106763e-08 -9.612617e-01 2.756374e-01
      outer loop
         vertex 1.128502e+01 -2.468794e+01 6.378187e-01
         vertex 2.761852e+01 -1.642619e+01 2.944996e+01
         vertex 1.294227e+01 -7.952856e+00 5.900000e+01
      endloop
   endfacet
   facet normal 8.324770e-01 4.806309e-01 2.756374e-01
      outer loop
         vertex 1.335851e+01 -7.231910e+00 5.900000e+01
         vertex 2.803476e+01 -1.570525e+01 2.944996e+01
         vertex 4.162385e-01 1.518477e+01 5.900000e+01
      endloop
   endfacet
   facet normal 8.324770e-01 4.806309e-01 2.756374e-01
      outer loop
         vertex 2.803476e+01 -1.570525e+01 2.944996e+01
         vertex 2.702290e+01 2.570857e+00 6.378187e-01
         vertex 4.162385e-01 1.518477e+01 5.900000e+01
      endloop
   endfacet
   facet normal 8.324770e-01 4.806309e-01 2.756374e-01
      outer loop
         vertex 4.162385e-01 1.518477e+01 5.900000e+01
         vertex 2.702290e+01 2.570857e+00 6.378187e-01
         vertex 4.162385e-01 3.213144e+01 2.944996e+01
      endloop
   endfacet
   facet normal 8.324770e-01 4.806309e-01 2.756373e-01
      outer loop
         vertex 2.702290e+01 2.570857e+00 6.378187e-01
         vertex 1.573787e+01 2.211708e+01 6.378187e-01
         vertex 4.162385e-01 3.213144e+01 2.944996e+01
      endloop
   endfacet
   facet normal 0.000000e+00 0.000000e+00 1.000000e+00
      outer loop
         vertex -4.162385e-01 1.518477e+01 5.900000e+01
         vertex -1.335851e+01 -7.231910e+00 5.900000e+01
         vertex -2.766686e-01 1.534552e+01 5.900000e+01
      endloop
   endfacet
   facet normal 0.000000e+00 0.000000e+00 1.000000e+00
      outer loop
         vertex -1.335851e+01 -7.231910e+00 5.900000e+01
         vertex -1.341255e+01 -7.629670e+00 5.900000e+01
         vertex -2.766686e-01 1.534552e+01 5.900000e+01
      endloop
   endfacet
   facet normal 0.000000e+00 0.000000e+00 1.000000e+00
      outer loop
         vertex -2.766686e-01 1.534552e+01 5.900000e+01
         vertex -1.341255e+01 -7.629670e+00 5.900000e+01
         vertex 9.878039e-02 1.543044e+01 5.900000e+01
      endloop
   endfacet
   facet normal 0.000000e+00 -0.000000e+00 1.000000e+00
      outer loop
         vertex -1.341255e+01 -7.629670e+00 5.900000e+01
         vertex -1.315128e+01 -7.912360e+00 5.900000e+01
         vertex 9.878039e-02 1.543044e+01 5.900000e+01
      endloop
   endfacet
   facet normal 0.000000e+00 0.000000e+00 1.000000e+00
      outer loop
         vertex 9.878039e-02 1.543044e+01 5.900000e+01
         vertex -1.315128e+01 -7.912360e+00 5.900000e+01
         vertex 4.162385e-01 1.518477e+01 5.900000e+01
      endloop
   endfacet
   facet normal 0.000000e+00 -0.000000e+00 1.000000e+00
      outer loop
         vertex -1.315128e+01 -7.912360e+00 5.900000e+01
         vertex -1.294227e+01 -7.952856e+00 5.900000e+01
         vertex 4.162385e-01 1.518477e+01 5.900000e+01
      endloop
   endfacet
   facet normal 0.000000e+00 0.000000e+00 1.000000e+00
      outer loop
         vertex 4.162385e-01 1.518477e+01 5.900000e+01
         vertex -1.294227e+01 -7.952856e+00 5.900000e+01
         vertex 1.335851e+01 -7.231910e+00 5.900000e+01
      endloop
   endfacet
   facet normal 0.000000e+00 -0.000000e+00 1.000000e+00
      outer loop
         vertex -1.294227e+01 -7.952856e+00 5.900000e+01
         vertex 1.294227e+01 -7.952856e+00 5.900000e+01
         vertex 1.335851e+01 -7.231910e+00 5.900000e+01
      endloop
   endfacet
   facet normal 0.000000e+00 0.000000e+00 1.000000e+00
      outer loop
         vertex 1.335851e+01 -7.231910e+00 5.900000e+01
         vertex 1.294227e+01 -7.952856e+00 5.900000e+01
         vertex 1.342794e+01 -7.433158e+00 5.900000e+01
      endloop
   endfacet
   facet normal 0.000000e+00 -0.000000e+00 1.000000e+00
      outer loop
         vertex 1.294227e+01 -7.952856e+00 5.900000e+01
         vertex 1.331376e+01 -7.800766e+00 5.900000e+01
         vertex 1.342794e+01 -7.433158e+00 5.900000e+01
      endloop
   endfacet
   facet normal 0.000000e+00 9.445706e-01 -3.283083e-01
      outer loop
         vertex -1.532164e+01 2.234905e+01 3.358459e-01
         vertex 1.782493e-14 3.236341e+01 2.914799e+01
         vertex 1.532164e+01 2.234905e+01 3.358459e-01
      endloop
   endfacet
   facet normal -7.237938e-17 1.521637e-18 -1.000000e+00
      outer loop
         vertex 2.660666e+01 2.330542e+00 -9.159340e-16
         vertex 1.128502e+01 -2.420731e+01 1.526557e-16
         vertex 1.532164e+01 2.187677e+01 -6.938894e-17
      endloop
   endfacet
   facet normal 1.168265e-17 -5.841562e-18 -1.000000e+00
      outer loop
         vertex 1.128502e+01 -2.420731e+01 1.526557e-16
         vertex -1.128502e+01 -2.420731e+01 -1.110223e-16
         vertex 1.532164e+01 2.187677e+01 -6.938894e-17
      endloop
   endfacet
   facet normal 2.264410e-18 -4.039360e-19 -1.000000e+00
      outer loop
         vertex 1.532164e+01 2.187677e+01 -6.938894e-17
         vertex -1.128502e+01 -2.420731e+01 -1.110223e-16
         vertex -1.532164e+01 2.187677e+01 -1.387779e-16
      endloop
   endfacet
   facet normal 5.176798e-18 -1.488328e-19 -1.000000e+00
      outer loop
         vertex -1.128502e+01 -2.420731e+01 -1.110223e-16
         vertex -2.660666e+01 2.330542e+00 -1.942890e-16
         vertex -1.532164e+01 2.187677e+01 -1.387779e-16
      endloop
   endfacet
   facet normal -8.180222e-01 -4.722853e-01 -3.283083e-01
      outer loop
         vertex -2.701567e+01 2.094399e+00 3.358459e-01
         vertex -1.155769e+01 -2.467960e+01 3.358459e-01
         vertex -2.803459e+01 -1.630907e+01 2.934879e+01
      endloop
   endfacet
   facet normal -8.180213e-01 -4.722875e-01 -3.283072e-01
      outer loop
         vertex -1.155769e+01 -2.467960e+01 3.358459e-01
         vertex -1.167407e+01 -2.468794e+01 6.378187e-01
         vertex -2.803459e+01 -1.630907e+01 2.934879e+01
      endloop
   endfacet
   facet normal -8.180251e-01 -4.722775e-01 -3.283122e-01
      outer loop
         vertex -2.803459e+01 -1.630907e+01 2.934879e+01
         vertex -1.167407e+01 -2.468794e+01 6.378187e-01
         vertex -2.780020e+01 -1.653109e+01 2.908416e+01
      endloop
   endfacet
   facet normal 8.180222e-01 -4.722853e-01 -3.283083e-01
      outer loop
         vertex 2.701567e+01 2.094399e+00 3.358459e-01
         vertex 2.802753e+01 -1.618171e+01 2.914799e+01
         vertex 1.169403e+01 -2.444345e+01 3.358459e-01
      endloop
   endfacet
   facet normal 6.097229e-01 6.875706e-01 3.943154e-01
      outer loop
         vertex 1.610063e-01 3.230176e+01 2.954764e+01
         vertex 4.162385e-01 1.518477e+01 5.900000e+01
         vertex 4.162385e-01 3.213144e+01 2.944996e+01
      endloop
   endfacet
   facet normal 5.572100e-01 7.200195e-01 4.136290e-01
      outer loop
         vertex 1.610063e-01 3.230176e+01 2.954764e+01
         vertex 9.878039e-02 1.543044e+01 5.900000e+01
         vertex 4.162385e-01 1.518477e+01 5.900000e+01
      endloop
   endfacet
   facet normal -1.924307e-01 8.507671e-01 4.890458e-01
      outer loop
         vertex -1.610063e-01 3.230176e+01 2.954764e+01
         vertex -2.766686e-01 1.534552e+01 5.900000e+01
         vertex 9.878039e-02 1.543044e+01 5.900000e+01
      endloop
   endfacet
   facet normal -7.068021e-01 6.136592e-01 3.519279e-01
      outer loop
         vertex -4.162385e-01 3.213144e+01 2.944996e+01
         vertex -4.162385e-01 1.518477e+01 5.900000e+01
         vertex -2.766686e-01 1.534552e+01 5.900000e+01
      endloop
   endfacet
   facet normal -6.097227e-01 6.879427e-01 3.936661e-01
      outer loop
         vertex -2.766686e-01 1.534552e+01 5.900000e+01
         vertex -1.610063e-01 3.230176e+01 2.954764e+01
         vertex -4.162385e-01 3.213144e+01 2.944996e+01
      endloop
   endfacet
   facet normal 0.000000e+00 8.677173e-01 4.970580e-01
      outer loop
         vertex 9.878039e-02 1.543044e+01 5.900000e+01
         vertex 1.610063e-01 3.230176e+01 2.954764e+01
         vertex -1.610063e-01 3.230176e+01 2.954764e+01
      endloop
   endfacet
   facet normal -9.283997e-01 3.276660e-01 1.752400e-01
      outer loop
         vertex -2.803476e+01 -1.570525e+01 2.944996e+01
         vertex -2.702290e+01 2.570857e+00 6.378187e-01
         vertex -2.811392e+01 -1.592019e+01 2.943252e+01
      endloop
   endfacet
   facet normal -9.586947e-01 2.544671e-01 1.270861e-01
      outer loop
         vertex -2.702290e+01 2.570857e+00 6.378187e-01
         vertex -2.710640e+01 2.333069e+00 4.840523e-01
         vertex -2.811392e+01 -1.592019e+01 2.943252e+01
      endloop
   endfacet
   facet normal -9.511455e-01 -2.445162e-01 -1.885051e-01
      outer loop
         vertex -2.710640e+01 2.333069e+00 4.840523e-01
         vertex -2.701567e+01 2.094399e+00 3.358459e-01
         vertex -2.803459e+01 -1.630907e+01 2.934879e+01
      endloop
   endfacet
   facet normal -9.756018e-01 -1.687964e-01 -1.403883e-01
      outer loop
         vertex -2.803459e+01 -1.630907e+01 2.934879e+01
         vertex -2.811392e+01 -1.592019e+01 2.943252e+01
         vertex -2.710640e+01 2.333069e+00 4.840523e-01
      endloop
   endfacet
   facet normal 2.905967e-01 -8.718186e-01 3.943170e-01
      outer loop
         vertex 2.789364e+01 -1.629031e+01 2.954764e+01
         vertex 1.294227e+01 -7.952856e+00 5.900000e+01
         vertex 2.761852e+01 -1.642619e+01 2.944996e+01
      endloop
   endfacet
   facet normal 3.449511e-01 -8.425673e-01 4.136292e-01
      outer loop
         vertex 2.789364e+01 -1.629031e+01 2.954764e+01
         vertex 1.331376e+01 -7.800766e+00 5.900000e+01
         vertex 1.294227e+01 -7.952856e+00 5.900000e+01
      endloop
   endfacet
   facet normal 8.330014e-01 -2.587333e-01 4.890457e-01
      outer loop
         vertex 2.805465e+01 -1.601144e+01 2.954764e+01
         vertex 1.342794e+01 -7.433158e+00 5.900000e+01
         vertex 1.331376e+01 -7.800766e+00 5.900000e+01
      endloop
   endfacet
   facet normal 8.848461e-01 3.052757e-01 3.519292e-01
      outer loop
         vertex 2.803476e+01 -1.570525e+01 2.944996e+01
         vertex 1.335851e+01 -7.231910e+00 5.900000e+01
         vertex 1.342794e+01 -7.433158e+00 5.900000e+01
      endloop
   endfacet
   facet normal 9.006375e-01 1.840588e-01 3.936678e-01
      outer loop
         vertex 1.342794e+01 -7.433158e+00 5.900000e+01
         vertex 2.805465e+01 -1.601144e+01 2.954764e+01
         vertex 2.803476e+01 -1.570525e+01 2.944996e+01
      endloop
   endfacet
   facet normal 7.514635e-01 -4.338616e-01 4.970580e-01
      outer loop
         vertex 1.331376e+01 -7.800766e+00 5.900000e+01
         vertex 2.789364e+01 -1.629031e+01 2.954764e+01
         vertex 2.805465e+01 -1.601144e+01 2.954764e+01
      endloop
   endfacet
   facet normal 8.658444e-01 4.998956e-01 -2.044030e-02
      outer loop
         vertex 2.701767e+01 2.567840e+00 3.426518e-01
         vertex 1.573787e+01 2.211708e+01 6.378187e-01
         vertex 2.702290e+01 2.570857e+00 6.378187e-01
      endloop
   endfacet
   facet normal 8.658444e-01 4.998956e-01 -2.044070e-02
      outer loop
         vertex 2.701767e+01 2.567840e+00 3.426518e-01
         vertex 1.573265e+01 2.211407e+01 3.426518e-01
         vertex 1.573787e+01 2.211708e+01 6.378187e-01
      endloop
   endfacet
   facet normal 7.049253e-01 4.069889e-01 -5.808961e-01
      outer loop
         vertex 2.701767e+01 2.567840e+00 3.426518e-01
         vertex 1.558413e+01 2.202832e+01 1.023428e-01
         vertex 1.573265e+01 2.211407e+01 3.426518e-01
      endloop
   endfacet
   facet normal 4.063905e-01 2.346297e-01 -8.830604e-01
      outer loop
         vertex 2.686915e+01 2.482091e+00 1.023428e-01
         vertex 1.546016e+01 2.195675e+01 2.627614e-02
         vertex 1.558413e+01 2.202832e+01 1.023428e-01
      endloop
   endfacet
   facet normal 1.403825e-01 8.104988e-02 -9.867744e-01
      outer loop
         vertex 2.660666e+01 2.330542e+00 -9.159340e-16
         vertex 1.532164e+01 2.187677e+01 -6.938894e-17
         vertex 1.546016e+01 2.195675e+01 2.627614e-02
      endloop
   endfacet
   facet normal 1.403822e-01 8.104970e-02 -9.867744e-01
      outer loop
         vertex 1.546016e+01 2.195675e+01 2.627614e-02
         vertex 2.674518e+01 2.410520e+00 2.627614e-02
         vertex 2.660666e+01 2.330542e+00 -9.159340e-16
      endloop
   endfacet
   facet normal 4.063903e-01 2.346295e-01 -8.830606e-01
      outer loop
         vertex 1.546016e+01 2.195675e+01 2.627614e-02
         vertex 2.686915e+01 2.482091e+00 1.023428e-01
         vertex 2.674518e+01 2.410520e+00 2.627614e-02
      endloop
   endfacet
   facet normal 7.049240e-01 4.069881e-01 -5.808983e-01
      outer loop
         vertex 1.558413e+01 2.202832e+01 1.023428e-01
         vertex 2.701767e+01 2.567840e+00 3.426518e-01
         vertex 2.686915e+01 2.482091e+00 1.023428e-01
      endloop
   endfacet
   facet normal 6.994742e-01 7.031822e-01 1.275564e-01
      outer loop
         vertex 4.162385e-01 3.213144e+01 2.944996e+01
         vertex 1.573787e+01 2.211708e+01 6.378187e-01
         vertex 2.520579e-01 3.232265e+01 2.929620e+01
      endloop
   endfacet
   facet normal 6.994752e-01 7.031810e-01 1.275574e-01
      outer loop
         vertex 1.573787e+01 2.211708e+01 6.378187e-01
         vertex 1.557370e+01 2.230829e+01 4.840523e-01
         vertex 2.520579e-01 3.232265e+01 2.929620e+01
      endloop
   endfacet
   facet normal 2.638173e-01 9.459739e-01 -1.885041e-01
      outer loop
         vertex 1.557370e+01 2.230829e+01 4.840523e-01
         vertex 1.532164e+01 2.234905e+01 3.358459e-01
         vertex 2.006344e-14 3.236341e+01 2.914799e+01
      endloop
   endfacet
   facet normal 2.638227e-01 9.459731e-01 -1.885009e-01
      outer loop
         vertex 2.006344e-14 3.236341e+01 2.914799e+01
         vertex 2.520579e-01 3.232265e+01 2.929620e+01
         vertex 1.557370e+01 2.230829e+01 4.840523e-01
      endloop
   endfacet
   facet normal 7.590410e-02 9.934227e-01 8.573121e-02
      outer loop
         vertex 1.575341e-01 3.236503e+01 2.933655e+01
         vertex 8.127159e-02 3.237918e+01 2.924008e+01
         vertex -2.791432e-02 3.238659e+01 2.925099e+01
      endloop
   endfacet
   facet normal 1.021363e-01 9.943446e-01 2.910457e-02
      outer loop
         vertex -5.430543e-02 3.238622e+01 2.935612e+01
         vertex 1.575341e-01 3.236503e+01 2.933655e+01
         vertex -2.791432e-02 3.238659e+01 2.925099e+01
      endloop
   endfacet
   facet normal 1.244747e-01 9.331787e-01 3.371700e-01
      outer loop
         vertex 2.241406e-01 3.232183e+01 2.943153e+01
         vertex 1.575341e-01 3.236503e+01 2.933655e+01
         vertex -5.430543e-02 3.238622e+01 2.935612e+01
      endloop
   endfacet
   facet normal 1.520168e-01 9.551264e-01 2.542136e-01
      outer loop
         vertex -7.814460e-02 3.236258e+01 2.945918e+01
         vertex 2.241406e-01 3.232183e+01 2.943153e+01
         vertex -5.430543e-02 3.238622e+01 2.935612e+01
      endloop
   endfacet
   facet normal 4.155153e-01 7.616848e-01 -4.971754e-01
      outer loop
         vertex 8.127159e-02 3.237918e+01 2.924008e+01
         vertex 2.520579e-01 3.232265e+01 2.929620e+01
         vertex 2.006344e-14 3.236341e+01 2.914799e+01
      endloop
   endfacet
   facet normal 6.892297e-01 7.095862e-01 1.464580e-01
      outer loop
         vertex 2.241406e-01 3.232183e+01 2.943153e+01
         vertex 4.162385e-01 3.213144e+01 2.944996e+01
         vertex 2.520579e-01 3.232265e+01 2.929620e+01
      endloop
   endfacet
   facet normal 6.086704e-01 6.571674e-01 4.445799e-01
      outer loop
         vertex 2.241406e-01 3.232183e+01 2.943153e+01
         vertex 1.610063e-01 3.230176e+01 2.954764e+01
         vertex 4.162385e-01 3.213144e+01 2.944996e+01
      endloop
   endfacet
   facet normal -0.000000e+00 8.239994e-01 5.665907e-01
      outer loop
         vertex -7.814460e-02 3.236258e+01 2.945918e+01
         vertex -1.610063e-01 3.230176e+01 2.954764e+01
         vertex 1.610063e-01 3.230176e+01 2.954764e+01
      endloop
   endfacet
   facet normal -5.646770e-01 8.244392e-01 3.794659e-02
      outer loop
         vertex -7.814460e-02 3.236258e+01 2.945918e+01
         vertex -4.162385e-01 3.213144e+01 2.944996e+01
         vertex -1.610063e-01 3.230176e+01 2.954764e+01
      endloop
   endfacet
   facet normal -5.293319e-01 7.591486e-01 3.788155e-01
      outer loop
         vertex -7.814460e-02 3.236258e+01 2.945918e+01
         vertex -2.520579e-01 3.232265e+01 2.929620e+01
         vertex -4.162385e-01 3.213144e+01 2.944996e+01
      endloop
   endfacet
   facet normal -3.160494e-01 9.036675e-01 -2.889599e-01
      outer loop
         vertex -2.791432e-02 3.238659e+01 2.925099e+01
         vertex 2.006344e-14 3.236341e+01 2.914799e+01
         vertex -2.520579e-01 3.232265e+01 2.929620e+01
      endloop
   endfacet
   facet normal 0.000000e+00 -0.000000e+00 0.000000e+00
      outer loop
         vertex -2.791432e-02 3.238659e+01 2.925099e+01
         vertex 2.006344e-14 3.236341e+01 2.914799e+01
         vertex 2.006344e-14 3.236341e+01 2.914799e+01
      endloop
   endfacet
   facet normal 0.000000e+00 0.000000e+00 0.000000e+00
      outer loop
         vertex 8.127159e-02 3.237918e+01 2.924008e+01
         vertex 2.006344e-14 3.236341e+01 2.914799e+01
         vertex 2.006344e-14 3.236341e+01 2.914799e+01
      endloop
   endfacet
   facet normal 0.000000e+00 0.000000e+00 0.000000e+00
      outer loop
         vertex 8.127159e-02 3.237918e+01 2.924008e+01
         vertex 2.006344e-14 3.236341e+01 2.914799e+01
         vertex 2.006344e-14 3.236341e+01 2.914799e+01
      endloop
   endfacet
   facet normal 4.548507e-02 9.771725e-01 -2.075210e-01
      outer loop
         vertex 2.006344e-14 3.236341e+01 2.914799e+01
         vertex -2.791432e-02 3.238659e+01 2.925099e+01
         vertex 8.127159e-02 3.237918e+01 2.924008e+01
      endloop
   endfacet
   facet normal -2.864321e-01 9.556431e-01 -6.857801e-02
      outer loop
         vertex -2.520579e-01 3.232265e+01 2.929620e+01
         vertex -5.430543e-02 3.238622e+01 2.935612e+01
         vertex -2.791432e-02 3.238659e+01 2.925099e+01
      endloop
   endfacet
   facet normal 3.532203e-01 9.244528e-01 -1.436051e-01
      outer loop
         vertex 2.520579e-01 3.232265e+01 2.929620e+01
         vertex 8.127159e-02 3.237918e+01 2.924008e+01
         vertex 1.575341e-01 3.236503e+01 2.933655e+01
      endloop
   endfacet
   facet normal -3.400394e-01 9.307009e-01 1.347923e-01
      outer loop
         vertex -2.520579e-01 3.232265e+01 2.929620e+01
         vertex -7.814460e-02 3.236258e+01 2.945918e+01
         vertex -5.430543e-02 3.238622e+01 2.935612e+01
      endloop
   endfacet
   facet normal 4.412263e-01 8.922031e-01 9.640018e-02
      outer loop
         vertex 2.520579e-01 3.232265e+01 2.929620e+01
         vertex 1.575341e-01 3.236503e+01 2.933655e+01
         vertex 2.241406e-01 3.232183e+01 2.943153e+01
      endloop
   endfacet
   facet normal 1.516698e-01 9.568417e-01 2.478917e-01
      outer loop
         vertex 1.610063e-01 3.230176e+01 2.954764e+01
         vertex 2.241406e-01 3.232183e+01 2.943153e+01
         vertex -7.814460e-02 3.236258e+01 2.945918e+01
      endloop
   endfacet
   facet normal -2.638227e-01 9.459730e-01 -1.885009e-01
      outer loop
         vertex 2.006344e-14 3.236341e+01 2.914799e+01
         vertex -1.532164e+01 2.234905e+01 3.358459e-01
         vertex -2.520579e-01 3.232265e+01 2.929620e+01
      endloop
   endfacet
   facet normal -2.638172e-01 9.459739e-01 -1.885041e-01
      outer loop
         vertex -1.532164e+01 2.234905e+01 3.358459e-01
         vertex -1.557370e+01 2.230829e+01 4.840523e-01
         vertex -2.520579e-01 3.232265e+01 2.929620e+01
      endloop
   endfacet
   facet normal -6.994752e-01 7.031810e-01 1.275574e-01
      outer loop
         vertex -1.557370e+01 2.230829e+01 4.840523e-01
         vertex -1.573787e+01 2.211708e+01 6.378187e-01
         vertex -4.162385e-01 3.213144e+01 2.944996e+01
      endloop
   endfacet
   facet normal -6.994742e-01 7.031822e-01 1.275564e-01
      outer loop
         vertex -4.162385e-01 3.213144e+01 2.944996e+01
         vertex -2.520579e-01 3.232265e+01 2.929620e+01
         vertex -1.557370e+01 2.230829e+01 4.840523e-01
      endloop
   endfacet
   facet normal -9.019451e-01 1.225216e-01 4.141057e-01
      outer loop
         vertex -2.811392e+01 -1.592019e+01 2.943252e+01
         vertex -1.341255e+01 -7.629670e+00 5.900000e+01
         vertex -1.335851e+01 -7.231910e+00 5.900000e+01
      endloop
   endfacet
   facet normal -6.405320e-01 -5.919867e-01 4.891529e-01
      outer loop
         vertex -2.803459e+01 -1.630907e+01 2.934879e+01
         vertex -1.315128e+01 -7.912360e+00 5.900000e+01
         vertex -1.341255e+01 -7.629670e+00 5.900000e+01
      endloop
   endfacet
   facet normal -1.780499e-01 -9.189359e-01 3.519305e-01
      outer loop
         vertex -2.780020e+01 -1.653109e+01 2.908416e+01
         vertex -1.294227e+01 -7.952856e+00 5.900000e+01
         vertex -1.315128e+01 -7.912360e+00 5.900000e+01
      endloop
   endfacet
   facet normal -3.391192e-01 -8.467027e-01 4.099912e-01
      outer loop
         vertex -1.315128e+01 -7.912360e+00 5.900000e+01
         vertex -2.803459e+01 -1.630907e+01 2.934879e+01
         vertex -2.780020e+01 -1.653109e+01 2.908416e+01
      endloop
   endfacet
   facet normal -8.282496e-01 -2.741854e-01 4.886972e-01
      outer loop
         vertex -1.341255e+01 -7.629670e+00 5.900000e+01
         vertex -2.811392e+01 -1.592019e+01 2.943252e+01
         vertex -2.803459e+01 -1.630907e+01 2.934879e+01
      endloop
   endfacet
   facet normal -8.862969e-01 2.975824e-01 3.548557e-01
      outer loop
         vertex -1.335851e+01 -7.231910e+00 5.900000e+01
         vertex -2.803476e+01 -1.570525e+01 2.944996e+01
         vertex -2.811392e+01 -1.592019e+01 2.943252e+01
      endloop
   endfacet
   facet normal 2.592388e-01 -9.573531e-01 1.275550e-01
      outer loop
         vertex 2.761852e+01 -1.642619e+01 2.944996e+01
         vertex 1.128502e+01 -2.468794e+01 6.378187e-01
         vertex 2.786621e+01 -1.637961e+01 2.929620e+01
      endloop
   endfacet
   facet normal 2.592380e-01 -9.573533e-01 1.275555e-01
      outer loop
         vertex 1.128502e+01 -2.468794e+01 6.378187e-01
         vertex 1.153270e+01 -2.464136e+01 4.840523e-01
         vertex 2.786621e+01 -1.637961e+01 2.929620e+01
      endloop
   endfacet
   facet normal 6.873281e-01 -7.014603e-01 -1.885034e-01
      outer loop
         vertex 1.153270e+01 -2.464136e+01 4.840523e-01
         vertex 1.169403e+01 -2.444345e+01 3.358459e-01
         vertex 2.802753e+01 -1.618171e+01 2.914799e+01
      endloop
   endfacet
   facet normal 6.873280e-01 -7.014604e-01 -1.885033e-01
      outer loop
         vertex 2.802753e+01 -1.618171e+01 2.914799e+01
         vertex 2.786621e+01 -1.637961e+01 2.929620e+01
         vertex 1.153270e+01 -2.464136e+01 4.840523e-01
      endloop
   endfacet
   facet normal 8.223659e-01 -5.624661e-01 8.571052e-02
      outer loop
         vertex 2.795017e+01 -1.631894e+01 2.933655e+01
         vertex 2.800056e+01 -1.625998e+01 2.924008e+01
         vertex 2.806156e+01 -1.616912e+01 2.925099e+01
      endloop
   endfacet
   facet normal 8.100584e-01 -5.856251e-01 2.913214e-02
      outer loop
         vertex 2.807444e+01 -1.614608e+01 2.935612e+01
         vertex 2.795017e+01 -1.631894e+01 2.933655e+01
         vertex 2.806156e+01 -1.616912e+01 2.925099e+01
      endloop
   endfacet
   facet normal 7.459214e-01 -5.743869e-01 3.371662e-01
      outer loop
         vertex 2.787946e+01 -1.635503e+01 2.943153e+01
         vertex 2.795017e+01 -1.631894e+01 2.933655e+01
         vertex 2.807444e+01 -1.614608e+01 2.935612e+01
      endloop
   endfacet
   facet normal 7.511581e-01 -6.092227e-01 2.541836e-01
      outer loop
         vertex 2.806589e+01 -1.611362e+01 2.945918e+01
         vertex 2.787946e+01 -1.635503e+01 2.943153e+01
         vertex 2.807444e+01 -1.614608e+01 2.935612e+01
      endloop
   endfacet
   facet normal 4.518913e-01 -7.406877e-01 -4.971679e-01
      outer loop
         vertex 2.800056e+01 -1.625998e+01 2.924008e+01
         vertex 2.786621e+01 -1.637961e+01 2.929620e+01
         vertex 2.802753e+01 -1.618171e+01 2.914799e+01
      endloop
   endfacet
   facet normal 2.699103e-01 -9.516812e-01 1.464625e-01
      outer loop
         vertex 2.787946e+01 -1.635503e+01 2.943153e+01
         vertex 2.761852e+01 -1.642619e+01 2.944996e+01
         vertex 2.786621e+01 -1.637961e+01 2.929620e+01
      endloop
   endfacet
   facet normal 2.647934e-01 -8.557060e-01 4.445804e-01
      outer loop
         vertex 2.787946e+01 -1.635503e+01 2.943153e+01
         vertex 2.789364e+01 -1.629031e+01 2.954764e+01
         vertex 2.761852e+01 -1.642619e+01 2.944996e+01
      endloop
   endfacet
   facet normal 7.135947e-01 -4.119979e-01 5.666042e-01
      outer loop
         vertex 2.806589e+01 -1.611362e+01 2.945918e+01
         vertex 2.805465e+01 -1.601144e+01 2.954764e+01
         vertex 2.789364e+01 -1.629031e+01 2.954764e+01
      endloop
   endfacet
   facet normal 9.963228e-01 7.680610e-02 3.796986e-02
      outer loop
         vertex 2.806589e+01 -1.611362e+01 2.945918e+01
         vertex 2.803476e+01 -1.570525e+01 2.944996e+01
         vertex 2.805465e+01 -1.601144e+01 2.954764e+01
      endloop
   endfacet
   facet normal 9.221095e-01 7.884115e-02 3.788115e-01
      outer loop
         vertex 2.806589e+01 -1.611362e+01 2.945918e+01
         vertex 2.811826e+01 -1.594304e+01 2.929620e+01
         vertex 2.803476e+01 -1.570525e+01 2.944996e+01
      endloop
   endfacet
   facet normal 9.406183e-01 -1.781208e-01 -2.889814e-01
      outer loop
         vertex 2.806156e+01 -1.616912e+01 2.925099e+01
         vertex 2.802753e+01 -1.618171e+01 2.914799e+01
         vertex 2.811826e+01 -1.594304e+01 2.929620e+01
      endloop
   endfacet
   facet normal 0.000000e+00 0.000000e+00 0.000000e+00
      outer loop
         vertex 2.806156e+01 -1.616912e+01 2.925099e+01
         vertex 2.802753e+01 -1.618171e+01 2.914799e+01
         vertex 2.802753e+01 -1.618171e+01 2.914799e+01
      endloop
   endfacet
   facet normal 0.000000e+00 -0.000000e+00 0.000000e+00
      outer loop
         vertex 2.800056e+01 -1.625998e+01 2.924008e+01
         vertex 2.802753e+01 -1.618171e+01 2.914799e+01
         vertex 2.802753e+01 -1.618171e+01 2.914799e+01
      endloop
   endfacet
   facet normal 0.000000e+00 -0.000000e+00 0.000000e+00
      outer loop
         vertex 2.800056e+01 -1.625998e+01 2.924008e+01
         vertex 2.802753e+01 -1.618171e+01 2.914799e+01
         vertex 2.802753e+01 -1.618171e+01 2.914799e+01
      endloop
   endfacet
   facet normal 8.234985e-01 -5.279951e-01 -2.075364e-01
      outer loop
         vertex 2.802753e+01 -1.618171e+01 2.914799e+01
         vertex 2.806156e+01 -1.616912e+01 2.925099e+01
         vertex 2.800056e+01 -1.625998e+01 2.924008e+01
      endloop
   endfacet
   facet normal 9.708279e-01 -2.297683e-01 -6.855465e-02
      outer loop
         vertex 2.811826e+01 -1.594304e+01 2.929620e+01
         vertex 2.807444e+01 -1.614608e+01 2.935612e+01
         vertex 2.806156e+01 -1.616912e+01 2.925099e+01
      endloop
   endfacet
   facet normal 6.240009e-01 -7.681173e-01 -1.435920e-01
      outer loop
         vertex 2.786621e+01 -1.637961e+01 2.929620e+01
         vertex 2.800056e+01 -1.625998e+01 2.924008e+01
         vertex 2.795017e+01 -1.631894e+01 2.933655e+01
      endloop
   endfacet
   facet normal 9.760306e-01 -1.708856e-01 1.347676e-01
      outer loop
         vertex 2.811826e+01 -1.594304e+01 2.929620e+01
         vertex 2.806589e+01 -1.611362e+01 2.945918e+01
         vertex 2.807444e+01 -1.614608e+01 2.935612e+01
      endloop
   endfacet
   facet normal 5.520708e-01 -8.282052e-01 9.640513e-02
      outer loop
         vertex 2.786621e+01 -1.637961e+01 2.929620e+01
         vertex 2.795017e+01 -1.631894e+01 2.933655e+01
         vertex 2.787946e+01 -1.635503e+01 2.943153e+01
      endloop
   endfacet
   facet normal 7.528071e-01 -6.097765e-01 2.478993e-01
      outer loop
         vertex 2.789364e+01 -1.629031e+01 2.954764e+01
         vertex 2.787946e+01 -1.635503e+01 2.943153e+01
         vertex 2.806589e+01 -1.611362e+01 2.945918e+01
      endloop
   endfacet
   facet normal 9.511457e-01 -2.445155e-01 -1.885047e-01
      outer loop
         vertex 2.802753e+01 -1.618171e+01 2.914799e+01
         vertex 2.701567e+01 2.094399e+00 3.358459e-01
         vertex 2.811826e+01 -1.594304e+01 2.929620e+01
      endloop
   endfacet
   facet normal 9.511455e-01 -2.445162e-01 -1.885051e-01
      outer loop
         vertex 2.701567e+01 2.094399e+00 3.358459e-01
         vertex 2.710640e+01 2.333069e+00 4.840523e-01
         vertex 2.811826e+01 -1.594304e+01 2.929620e+01
      endloop
   endfacet
   facet normal 9.587114e-01 2.541696e-01 1.275553e-01
      outer loop
         vertex 2.710640e+01 2.333069e+00 4.840523e-01
         vertex 2.702290e+01 2.570857e+00 6.378187e-01
         vertex 2.803476e+01 -1.570525e+01 2.944996e+01
      endloop
   endfacet
   facet normal 9.587113e-01 2.541697e-01 1.275553e-01
      outer loop
         vertex 2.803476e+01 -1.570525e+01 2.944996e+01
         vertex 2.811826e+01 -1.594304e+01 2.929620e+01
         vertex 2.710640e+01 2.333069e+00 4.840523e-01
      endloop
   endfacet
   facet normal 5.736385e-06 2.812499e-02 -9.996044e-01
      outer loop
         vertex 1.532164e+01 2.187677e+01 -6.938894e-17
         vertex -1.532164e+01 2.188614e+01 8.791421e-05
         vertex -1.532164e+01 2.189552e+01 3.516259e-04
      endloop
   endfacet
   facet normal 2.264311e-18 9.377485e-03 -9.999560e-01
      outer loop
         vertex 1.532164e+01 2.187677e+01 -6.938894e-17
         vertex -1.532164e+01 2.187677e+01 -1.387779e-16
         vertex -1.532164e+01 2.188614e+01 8.791421e-05
      endloop
   endfacet
   facet normal 1.751605e-04 3.041743e-01 -9.526164e-01
      outer loop
         vertex -1.532164e+01 2.189552e+01 3.516259e-04
         vertex 1.532164e+01 2.216653e+01 9.252173e-02
         vertex 1.532164e+01 2.187677e+01 -6.938894e-17
      endloop
   endfacet
   facet normal 9.031850e-05 7.999517e-01 -6.000645e-01
      outer loop
         vertex -1.532164e+01 2.217412e+01 9.802689e-02
         vertex 1.532164e+01 2.234905e+01 3.358459e-01
         vertex 1.532164e+01 2.216653e+01 9.252173e-02
      endloop
   endfacet
   facet normal 0.000000e+00 8.055419e-01 -5.925388e-01
      outer loop
         vertex -1.532164e+01 2.217412e+01 9.802689e-02
         vertex -1.532164e+01 2.234905e+01 3.358459e-01
         vertex 1.532164e+01 2.234905e+01 3.358459e-01
      endloop
   endfacet
   facet normal -8.759603e-05 3.308463e-01 -9.436846e-01
      outer loop
         vertex 1.532164e+01 2.216653e+01 9.252173e-02
         vertex -1.532164e+01 2.189552e+01 3.516259e-04
         vertex -1.532164e+01 2.217412e+01 9.802689e-02
      endloop
   endfacet
   facet normal -3.023850e-01 7.625026e-01 -5.719730e-01
      outer loop
         vertex 1.532164e+01 2.216653e+01 9.252173e-02
         vertex 1.532164e+01 2.234905e+01 3.358459e-01
         vertex 1.536639e+01 2.232078e+01 2.744983e-01
      endloop
   endfacet
   facet normal 0.000000e+00 -0.000000e+00 0.000000e+00
      outer loop
         vertex 1.532164e+01 2.234905e+01 3.358459e-01
         vertex 1.532164e+01 2.234905e+01 3.358459e-01
         vertex 1.536639e+01 2.232078e+01 2.744983e-01
      endloop
   endfacet
   facet normal -9.021940e-03 7.638880e-01 -6.452857e-01
      outer loop
         vertex 1.536639e+01 2.232078e+01 2.744983e-01
         vertex 1.544156e+01 2.225039e+01 1.901189e-01
         vertex 1.532164e+01 2.216653e+01 9.252173e-02
      endloop
   endfacet
   facet normal 2.192536e-01 5.904348e-01 -7.767333e-01
      outer loop
         vertex 1.544156e+01 2.225039e+01 1.901189e-01
         vertex 1.553218e+01 2.212569e+01 1.209072e-01
         vertex 1.532164e+01 2.216653e+01 9.252173e-02
      endloop
   endfacet
   facet normal 3.369738e-01 3.466827e-01 -8.753627e-01
      outer loop
         vertex 1.553218e+01 2.212569e+01 1.209072e-01
         vertex 1.558413e+01 2.202832e+01 1.023428e-01
         vertex 1.546016e+01 2.195675e+01 2.627614e-02
      endloop
   endfacet
   facet normal 5.082915e-03 3.041704e-01 -9.526041e-01
      outer loop
         vertex 1.546016e+01 2.195675e+01 2.627614e-02
         vertex 1.532164e+01 2.187677e+01 -6.938894e-17
         vertex 1.532164e+01 2.216653e+01 9.252173e-02
      endloop
   endfacet
   facet normal 1.998566e-01 4.126085e-01 -8.887134e-01
      outer loop
         vertex 1.532164e+01 2.216653e+01 9.252173e-02
         vertex 1.553218e+01 2.212569e+01 1.209072e-01
         vertex 1.546016e+01 2.195675e+01 2.627614e-02
      endloop
   endfacet
   facet normal 0.000000e+00 0.000000e+00 0.000000e+00
      outer loop
         vertex 1.573265e+01 2.211407e+01 3.426518e-01
         vertex 1.573787e+01 2.211708e+01 6.378187e-01
         vertex 1.573787e+01 2.211708e+01 6.378187e-01
      endloop
   endfacet
   facet normal -0.000000e+00 0.000000e+00 0.000000e+00
      outer loop
         vertex 1.569534e+01 2.220723e+01 4.661911e-01
         vertex 1.573787e+01 2.211708e+01 6.378187e-01
         vertex 1.573787e+01 2.211708e+01 6.378187e-01
      endloop
   endfacet
   facet normal 6.419383e-01 7.327624e-01 2.257752e-01
      outer loop
         vertex 1.569534e+01 2.220723e+01 4.661911e-01
         vertex 1.557370e+01 2.230829e+01 4.840523e-01
         vertex 1.573787e+01 2.211708e+01 6.378187e-01
      endloop
   endfacet
   facet normal 2.824678e-01 9.327935e-01 -2.238485e-01
      outer loop
         vertex 1.536639e+01 2.232078e+01 2.744983e-01
         vertex 1.532164e+01 2.234905e+01 3.358459e-01
         vertex 1.557370e+01 2.230829e+01 4.840523e-01
      endloop
   endfacet
   facet normal 3.278210e-01 8.483760e-01 -4.156821e-01
      outer loop
         vertex 1.559393e+01 2.224530e+01 2.998905e-01
         vertex 1.544156e+01 2.225039e+01 1.901189e-01
         vertex 1.536639e+01 2.232078e+01 2.744983e-01
      endloop
   endfacet
   facet normal 4.529767e-01 6.611314e-01 -5.980947e-01
      outer loop
         vertex 1.559393e+01 2.224530e+01 2.998905e-01
         vertex 1.553218e+01 2.212569e+01 1.209072e-01
         vertex 1.544156e+01 2.225039e+01 1.901189e-01
      endloop
   endfacet
   facet normal 6.680130e-01 4.668913e-01 -5.794576e-01
      outer loop
         vertex 1.573265e+01 2.211407e+01 3.426518e-01
         vertex 1.558413e+01 2.202832e+01 1.023428e-01
         vertex 1.553218e+01 2.212569e+01 1.209072e-01
      endloop
   endfacet
   facet normal 6.094994e-01 7.682236e-01 -1.958136e-01
      outer loop
         vertex 1.557370e+01 2.230829e+01 4.840523e-01
         vertex 1.569534e+01 2.220723e+01 4.661911e-01
         vertex 1.559393e+01 2.224530e+01 2.998905e-01
      endloop
   endfacet
   facet normal 7.038868e-01 6.528920e-01 -2.797775e-01
      outer loop
         vertex 1.573265e+01 2.211407e+01 3.426518e-01
         vertex 1.559393e+01 2.224530e+01 2.998905e-01
         vertex 1.569534e+01 2.220723e+01 4.661911e-01
      endloop
   endfacet
   facet normal 9.185597e-01 3.947606e-01 -2.029929e-02
      outer loop
         vertex 1.569534e+01 2.220723e+01 4.661911e-01
         vertex 1.573787e+01 2.211708e+01 6.378187e-01
         vertex 1.573265e+01 2.211407e+01 3.426518e-01
      endloop
   endfacet
   facet normal 3.302055e-01 9.036244e-01 -2.728135e-01
      outer loop
         vertex 1.559393e+01 2.224530e+01 2.998905e-01
         vertex 1.536639e+01 2.232078e+01 2.744983e-01
         vertex 1.557370e+01 2.230829e+01 4.840523e-01
      endloop
   endfacet
   facet normal 6.527128e-01 5.063284e-01 -5.635580e-01
      outer loop
         vertex 1.573265e+01 2.211407e+01 3.426518e-01
         vertex 1.553218e+01 2.212569e+01 1.209072e-01
         vertex 1.559393e+01 2.224530e+01 2.998905e-01
      endloop
   endfacet
   facet normal 7.484626e-01 1.850571e-01 -6.368341e-01
      outer loop
         vertex 2.698042e+01 2.274780e+00 1.728823e-01
         vertex 2.686915e+01 2.482091e+00 1.023428e-01
         vertex 2.706196e+01 2.382089e+00 2.998905e-01
      endloop
   endfacet
   facet normal 7.540195e-01 3.127533e-01 -5.776158e-01
      outer loop
         vertex 2.686915e+01 2.482091e+00 1.023428e-01
         vertex 2.701767e+01 2.567840e+00 3.426518e-01
         vertex 2.706196e+01 2.382089e+00 2.998905e-01
      endloop
   endfacet
   facet normal 8.011600e-01 5.981058e-01 -2.029892e-02
      outer loop
         vertex 2.701767e+01 2.567840e+00 3.426518e-01
         vertex 2.702290e+01 2.570857e+00 6.378187e-01
         vertex 2.707969e+01 2.488953e+00 4.661911e-01
      endloop
   endfacet
   facet normal 0.000000e+00 -0.000000e+00 0.000000e+00
      outer loop
         vertex 2.702290e+01 2.570857e+00 6.378187e-01
         vertex 2.702290e+01 2.570857e+00 6.378187e-01
         vertex 2.707969e+01 2.488953e+00 4.661911e-01
      endloop
   endfacet
   facet normal 0.000000e+00 -0.000000e+00 0.000000e+00
      outer loop
         vertex 2.702290e+01 2.570857e+00 6.378187e-01
         vertex 2.702290e+01 2.570857e+00 6.378187e-01
         vertex 2.710640e+01 2.333069e+00 4.840523e-01
      endloop
   endfacet
   facet normal 9.426246e-01 -1.862993e-01 -2.770405e-01
      outer loop
         vertex 2.710640e+01 2.333069e+00 4.840523e-01
         vertex 2.701567e+01 2.094399e+00 3.358459e-01
         vertex 2.706196e+01 2.382089e+00 2.998905e-01
      endloop
   endfacet
   facet normal 8.919201e-01 -1.945340e-01 -4.082096e-01
      outer loop
         vertex 2.701567e+01 2.094399e+00 3.358459e-01
         vertex 2.698042e+01 2.274780e+00 1.728823e-01
         vertex 2.706196e+01 2.382089e+00 2.998905e-01
      endloop
   endfacet
   facet normal 9.700512e-01 1.437333e-01 -1.958097e-01
      outer loop
         vertex 2.706196e+01 2.382089e+00 2.998905e-01
         vertex 2.707969e+01 2.488953e+00 4.661911e-01
         vertex 2.710640e+01 2.333069e+00 4.840523e-01
      endloop
   endfacet
   facet normal 9.173681e-01 2.831338e-01 -2.797694e-01
      outer loop
         vertex 2.707969e+01 2.488953e+00 4.661911e-01
         vertex 2.706196e+01 2.382089e+00 2.998905e-01
         vertex 2.701767e+01 2.567840e+00 3.426518e-01
      endloop
   endfacet
   facet normal 9.555618e-01 1.895554e-01 2.257661e-01
      outer loop
         vertex 2.707969e+01 2.488953e+00 4.661911e-01
         vertex 2.702290e+01 2.570857e+00 6.378187e-01
         vertex 2.710640e+01 2.333069e+00 4.840523e-01
      endloop
   endfacet
   facet normal 1.870936e-01 6.784128e-01 7.104590e-01
      outer loop
         vertex 2.701443e+01 2.184302e+00 2.503251e-01
         vertex 2.698042e+01 2.274780e+00 1.728823e-01
         vertex 2.701567e+01 2.094399e+00 3.358459e-01
      endloop
   endfacet
   facet normal 2.777756e-01 4.397149e-01 8.541028e-01
      outer loop
         vertex 2.693913e+01 2.383520e+00 1.303304e-01
         vertex 2.686915e+01 2.482091e+00 1.023428e-01
         vertex 2.698042e+01 2.274780e+00 1.728823e-01
      endloop
   endfacet
   facet normal 4.807892e-01 9.380286e-02 -8.718043e-01
      outer loop
         vertex 2.693913e+01 2.383520e+00 1.303304e-01
         vertex 2.674518e+01 2.410520e+00 2.627614e-02
         vertex 2.686915e+01 2.482091e+00 1.023428e-01
      endloop
   endfacet
   facet normal 2.659602e-01 -1.476834e-01 -9.526042e-01
      outer loop
         vertex 2.685760e+01 2.185661e+00 9.252173e-02
         vertex 2.660666e+01 2.330542e+00 -9.159340e-16
         vertex 2.674518e+01 2.410520e+00 2.627614e-02
      endloop
   endfacet
   facet normal 5.886285e-01 -5.529000e-01 -5.897611e-01
      outer loop
         vertex 2.701443e+01 2.184302e+00 2.503251e-01
         vertex 2.701567e+01 2.094399e+00 3.358459e-01
         vertex 2.685760e+01 2.185661e+00 9.252173e-02
      endloop
   endfacet
   facet normal -0.000000e+00 0.000000e+00 0.000000e+00
      outer loop
         vertex 2.701443e+01 2.184302e+00 2.503251e-01
         vertex 2.701567e+01 2.094399e+00 3.358459e-01
         vertex 2.701567e+01 2.094399e+00 3.358459e-01
      endloop
   endfacet
   facet normal 6.755381e-01 -2.990707e-01 -6.739473e-01
      outer loop
         vertex 2.685760e+01 2.185661e+00 9.252173e-02
         vertex 2.698836e+01 2.282452e+00 1.806388e-01
         vertex 2.701443e+01 2.184302e+00 2.503251e-01
      endloop
   endfacet
   facet normal -7.800598e-01 2.110283e-01 5.890448e-01
      outer loop
         vertex 2.698042e+01 2.274780e+00 1.728823e-01
         vertex 2.701443e+01 2.184302e+00 2.503251e-01
         vertex 2.698836e+01 2.282452e+00 1.806388e-01
      endloop
   endfacet
   facet normal 6.052032e-01 -9.843258e-02 -7.899621e-01
      outer loop
         vertex 2.685760e+01 2.185661e+00 9.252173e-02
         vertex 2.693913e+01 2.383520e+00 1.303304e-01
         vertex 2.698836e+01 2.282452e+00 1.806388e-01
      endloop
   endfacet
   facet normal -7.041977e-01 1.037579e-02 7.099282e-01
      outer loop
         vertex 2.698042e+01 2.274780e+00 1.728823e-01
         vertex 2.698836e+01 2.282452e+00 1.806388e-01
         vertex 2.693913e+01 2.383520e+00 1.303304e-01
      endloop
   endfacet
   facet normal 4.699099e-01 -2.502626e-02 -8.823595e-01
      outer loop
         vertex 2.685760e+01 2.185661e+00 9.252173e-02
         vertex 2.674518e+01 2.410520e+00 2.627614e-02
         vertex 2.693913e+01 2.383520e+00 1.303304e-01
      endloop
   endfacet
   facet normal 6.927790e-01 -3.999761e-01 -6.000637e-01
      outer loop
         vertex 2.685760e+01 2.185661e+00 9.252173e-02
         vertex 2.701567e+01 2.094399e+00 3.358459e-01
         vertex 1.169403e+01 -2.444345e+01 3.358459e-01
      endloop
   endfacet
   facet normal 2.634224e-01 -1.520870e-01 -9.526165e-01
      outer loop
         vertex 1.153596e+01 -2.435219e+01 9.252173e-02
         vertex 2.660666e+01 2.330542e+00 -9.159340e-16
         vertex 2.685760e+01 2.185661e+00 9.252173e-02
      endloop
   endfacet
   facet normal 2.634225e-01 -1.520870e-01 -9.526165e-01
      outer loop
         vertex 1.153596e+01 -2.435219e+01 9.252173e-02
         vertex 1.128502e+01 -2.420731e+01 1.526557e-16
         vertex 2.660666e+01 2.330542e+00 -9.159340e-16
      endloop
   endfacet
   facet normal 6.927773e-01 -3.999752e-01 -6.000662e-01
      outer loop
         vertex 2.685760e+01 2.185661e+00 9.252173e-02
         vertex 1.169403e+01 -2.444345e+01 3.358459e-01
         vertex 1.153596e+01 -2.435219e+01 9.252173e-02
      endloop
   endfacet
   facet normal -8.120240e-03 -4.688223e-03 -9.999560e-01
      outer loop
         vertex -2.661478e+01 2.325854e+00 8.791421e-05
         vertex -2.660666e+01 2.330542e+00 -1.942890e-16
         vertex -1.128502e+01 -2.420731e+01 -1.110223e-16
      endloop
   endfacet
   facet normal -2.435258e-02 -1.406659e-02 -9.996045e-01
      outer loop
         vertex -1.128502e+01 -2.420731e+01 -1.110223e-16
         vertex -2.662289e+01 2.321168e+00 3.516259e-04
         vertex -2.661478e+01 2.325854e+00 8.791421e-05
      endloop
   endfacet
   facet normal -2.868312e-01 -1.648884e-01 -9.436841e-01
      outer loop
         vertex -1.141100e+01 -2.442551e+01 5.012199e-02
         vertex -2.686417e+01 2.181866e+00 9.802689e-02
         vertex -2.662289e+01 2.321168e+00 3.516259e-04
      endloop
   endfacet
   facet normal -6.976206e-01 -4.027714e-01 -5.925374e-01
      outer loop
         vertex -1.155769e+01 -2.467960e+01 3.358459e-01
         vertex -2.701567e+01 2.094399e+00 3.358459e-01
         vertex -2.686417e+01 2.181866e+00 9.802689e-02
      endloop
   endfacet
   facet normal -6.465099e-01 -3.742866e-01 -6.647815e-01
      outer loop
         vertex -2.686417e+01 2.181866e+00 9.802689e-02
         vertex -1.141100e+01 -2.442551e+01 5.012199e-02
         vertex -1.155769e+01 -2.467960e+01 3.358459e-01
      endloop
   endfacet
   facet normal -1.937628e-01 -1.120142e-01 -9.746327e-01
      outer loop
         vertex -2.662289e+01 2.321168e+00 3.516259e-04
         vertex -1.128502e+01 -2.420731e+01 -1.110223e-16
         vertex -1.141100e+01 -2.442551e+01 5.012199e-02
      endloop
   endfacet
   facet normal -3.988387e-01 6.348676e-01 -6.617181e-01
      outer loop
         vertex -1.549631e+01 2.210335e+01 8.993434e-02
         vertex -1.562668e+01 2.214432e+01 2.078267e-01
         vertex -1.548720e+01 2.227832e+01 2.523242e-01
      endloop
   endfacet
   facet normal -3.988253e-01 6.348712e-01 -6.617227e-01
      outer loop
         vertex -1.549631e+01 2.210335e+01 8.993434e-02
         vertex -1.548720e+01 2.227832e+01 2.523242e-01
         vertex -1.541644e+01 2.225608e+01 1.883371e-01
      endloop
   endfacet
   facet normal -5.512946e-01 7.160300e-01 -4.282233e-01
      outer loop
         vertex -1.562668e+01 2.214432e+01 2.078267e-01
         vertex -1.567969e+01 2.220096e+01 3.707871e-01
         vertex -1.551597e+01 2.230906e+01 3.407724e-01
      endloop
   endfacet
   facet normal -5.513097e-01 7.160277e-01 -4.282078e-01
      outer loop
         vertex -1.562668e+01 2.214432e+01 2.078267e-01
         vertex -1.551597e+01 2.230906e+01 3.407724e-01
         vertex -1.548720e+01 2.227832e+01 2.523242e-01
      endloop
   endfacet
   facet normal -7.399024e-01 6.712301e-01 4.466162e-02
      outer loop
         vertex -1.574195e+01 2.212842e+01 3.999559e-01
         vertex -1.573787e+01 2.211708e+01 6.378187e-01
         vertex -1.557370e+01 2.230829e+01 4.840523e-01
      endloop
   endfacet
   facet normal -2.028201e-01 9.762276e-01 -7.644410e-02
      outer loop
         vertex -1.557370e+01 2.230829e+01 4.840523e-01
         vertex -1.532164e+01 2.234905e+01 3.358459e-01
         vertex -1.551597e+01 2.230906e+01 3.407724e-01
      endloop
   endfacet
   facet normal -0.000000e+00 0.000000e+00 0.000000e+00
      outer loop
         vertex -1.532164e+01 2.234905e+01 3.358459e-01
         vertex -1.532164e+01 2.234905e+01 3.358459e-01
         vertex -1.551597e+01 2.230906e+01 3.407724e-01
      endloop
   endfacet
   facet normal 0.000000e+00 0.000000e+00 0.000000e+00
      outer loop
         vertex -1.532164e+01 2.234905e+01 3.358459e-01
         vertex -1.532164e+01 2.234905e+01 3.358459e-01
         vertex -1.548720e+01 2.227832e+01 2.523242e-01
      endloop
   endfacet
   facet normal 0.000000e+00 0.000000e+00 0.000000e+00
      outer loop
         vertex -1.532164e+01 2.234905e+01 3.358459e-01
         vertex -1.532164e+01 2.234905e+01 3.358459e-01
         vertex -1.541644e+01 2.225608e+01 1.883371e-01
      endloop
   endfacet
   facet normal 1.308442e-01 7.986166e-01 -5.874448e-01
      outer loop
         vertex -1.532164e+01 2.234905e+01 3.358459e-01
         vertex -1.532164e+01 2.217412e+01 9.802689e-02
         vertex -1.541644e+01 2.225608e+01 1.883371e-01
      endloop
   endfacet
   facet normal 7.954006e-03 3.308359e-01 -9.436548e-01
      outer loop
         vertex -1.532164e+01 2.217412e+01 9.802689e-02
         vertex -1.532164e+01 2.189552e+01 3.516259e-04
         vertex -1.544779e+01 2.196900e+01 2.504914e-02
      endloop
   endfacet
   facet normal -5.030435e-01 2.217830e-01 -8.353200e-01
      outer loop
         vertex -1.544779e+01 2.196900e+01 2.504914e-02
         vertex -1.563812e+01 2.207588e+01 1.680426e-01
         vertex -1.549631e+01 2.210335e+01 8.993434e-02
      endloop
   endfacet
   facet normal -8.019243e-01 3.947099e-01 -4.484657e-01
      outer loop
         vertex -1.563812e+01 2.207588e+01 1.680426e-01
         vertex -1.574195e+01 2.212842e+01 3.999559e-01
         vertex -1.562668e+01 2.214432e+01 2.078267e-01
      endloop
   endfacet
   facet normal -4.904173e-01 4.977728e-01 -7.153412e-01
      outer loop
         vertex -1.562668e+01 2.214432e+01 2.078267e-01
         vertex -1.549631e+01 2.210335e+01 8.993434e-02
         vertex -1.563812e+01 2.207588e+01 1.680426e-01
      endloop
   endfacet
   facet normal -2.093748e-01 6.046079e-01 -7.685125e-01
      outer loop
         vertex -1.549631e+01 2.210335e+01 8.993434e-02
         vertex -1.541644e+01 2.225608e+01 1.883371e-01
         vertex -1.532164e+01 2.217412e+01 9.802689e-02
      endloop
   endfacet
   facet normal -5.652762e-01 7.940628e-01 -2.234438e-01
      outer loop
         vertex -1.551597e+01 2.230906e+01 3.407724e-01
         vertex -1.567969e+01 2.220096e+01 3.707871e-01
         vertex -1.557370e+01 2.230829e+01 4.840523e-01
      endloop
   endfacet
   facet normal -1.957717e-01 9.048041e-01 -3.781573e-01
      outer loop
         vertex -1.548720e+01 2.227832e+01 2.523242e-01
         vertex -1.551597e+01 2.230906e+01 3.407724e-01
         vertex -1.532164e+01 2.234905e+01 3.358459e-01
      endloop
   endfacet
   facet normal -7.439219e-01 6.649955e-01 6.603911e-02
      outer loop
         vertex -1.574195e+01 2.212842e+01 3.999559e-01
         vertex -1.557370e+01 2.230829e+01 4.840523e-01
         vertex -1.567969e+01 2.220096e+01 3.707871e-01
      endloop
   endfacet
   facet normal -1.416175e-01 8.759774e-01 -4.610944e-01
      outer loop
         vertex -1.548720e+01 2.227832e+01 2.523242e-01
         vertex -1.532164e+01 2.234905e+01 3.358459e-01
         vertex -1.541644e+01 2.225608e+01 1.883371e-01
      endloop
   endfacet
   facet normal -1.185975e-01 3.967747e-01 -9.102222e-01
      outer loop
         vertex -1.532164e+01 2.217412e+01 9.802689e-02
         vertex -1.544779e+01 2.196900e+01 2.504914e-02
         vertex -1.549631e+01 2.210335e+01 8.993434e-02
      endloop
   endfacet
   facet normal -7.654573e-01 4.885344e-01 -4.188188e-01
      outer loop
         vertex -1.562668e+01 2.214432e+01 2.078267e-01
         vertex -1.574195e+01 2.212842e+01 3.999559e-01
         vertex -1.567969e+01 2.220096e+01 3.707871e-01
      endloop
   endfacet
   facet normal -6.143659e-01 -7.886081e-01 -2.553225e-02
      outer loop
         vertex -1.566746e+01 2.207643e+01 1.990925e-01
         vertex -1.573787e+01 2.211708e+01 6.378187e-01
         vertex -1.574400e+01 2.212920e+01 4.111904e-01
      endloop
   endfacet
   facet normal 0.000000e+00 0.000000e+00 -0.000000e+00
      outer loop
         vertex -1.573787e+01 2.211708e+01 6.378187e-01
         vertex -1.573787e+01 2.211708e+01 6.378187e-01
         vertex -1.574400e+01 2.212920e+01 4.111904e-01
      endloop
   endfacet
   facet normal 5.055810e-01 8.621704e-01 3.240531e-02
      outer loop
         vertex -1.573787e+01 2.211708e+01 6.378187e-01
         vertex -1.574195e+01 2.212842e+01 3.999559e-01
         vertex -1.574400e+01 2.212920e+01 4.111904e-01
      endloop
   endfacet
   facet normal 5.070418e-01 8.613312e-01 3.189205e-02
      outer loop
         vertex -1.574195e+01 2.212842e+01 3.999559e-01
         vertex -1.563812e+01 2.207588e+01 1.680426e-01
         vertex -1.566319e+01 2.208934e+01 2.030917e-01
      endloop
   endfacet
   facet normal 5.074032e-01 8.611258e-01 3.169036e-02
      outer loop
         vertex -1.563812e+01 2.207588e+01 1.680426e-01
         vertex -1.544779e+01 2.196900e+01 2.504914e-02
         vertex -1.551212e+01 2.200576e+01 5.606611e-02
      endloop
   endfacet
   facet normal -5.078212e-01 -8.608339e-01 -3.290302e-02
      outer loop
         vertex -1.544779e+01 2.196900e+01 2.504914e-02
         vertex -1.532164e+01 2.189552e+01 3.516259e-04
         vertex -1.551212e+01 2.200576e+01 5.606611e-02
      endloop
   endfacet
   facet normal -2.661375e-01 2.711066e-02 -9.635538e-01
      outer loop
         vertex -1.532164e+01 2.189552e+01 3.516259e-04
         vertex -1.532164e+01 2.188614e+01 8.791421e-05
         vertex -1.551212e+01 2.200576e+01 5.606611e-02
      endloop
   endfacet
   facet normal -4.953819e-01 8.145990e-03 -8.686371e-01
      outer loop
         vertex -1.532164e+01 2.188614e+01 8.791421e-05
         vertex -1.532164e+01 2.187677e+01 -1.387779e-16
         vertex -1.566746e+01 2.207643e+01 1.990925e-01
      endloop
   endfacet
   facet normal -8.275924e-01 3.965129e-01 -3.973266e-01
      outer loop
         vertex -1.574400e+01 2.212920e+01 4.111904e-01
         vertex -1.566319e+01 2.208934e+01 2.030917e-01
         vertex -1.566746e+01 2.207643e+01 1.990925e-01
      endloop
   endfacet
   facet normal -5.098697e-01 -8.596043e-01 -3.336623e-02
      outer loop
         vertex -1.566319e+01 2.208934e+01 2.030917e-01
         vertex -1.574400e+01 2.212920e+01 4.111904e-01
         vertex -1.574195e+01 2.212842e+01 3.999559e-01
      endloop
   endfacet
   facet normal -5.132787e-01 4.041118e-01 -7.571253e-01
      outer loop
         vertex -1.566319e+01 2.208934e+01 2.030917e-01
         vertex -1.551212e+01 2.200576e+01 5.606611e-02
         vertex -1.566746e+01 2.207643e+01 1.990925e-01
      endloop
   endfacet
   facet normal -5.083548e-01 -8.605096e-01 -3.314692e-02
      outer loop
         vertex -1.551212e+01 2.200576e+01 5.606611e-02
         vertex -1.566319e+01 2.208934e+01 2.030917e-01
         vertex -1.563812e+01 2.207588e+01 1.680426e-01
      endloop
   endfacet
   facet normal -5.642781e-01 -7.958426e-01 -2.196014e-01
      outer loop
         vertex -1.551212e+01 2.200576e+01 5.606611e-02
         vertex -1.532164e+01 2.188614e+01 8.791421e-05
         vertex -1.566746e+01 2.207643e+01 1.990925e-01
      endloop
   endfacet
   facet normal -8.515237e-01 4.916274e-01 -1.822357e-01
      outer loop
         vertex -1.566746e+01 2.207643e+01 1.990925e-01
         vertex -2.695248e+01 2.530201e+00 1.990925e-01
         vertex -2.702290e+01 2.570857e+00 6.378187e-01
      endloop
   endfacet
   facet normal -3.864185e-01 2.230988e-01 -8.949344e-01
      outer loop
         vertex -1.532164e+01 2.187677e+01 -1.387779e-16
         vertex -2.660666e+01 2.330542e+00 -1.942890e-16
         vertex -2.695248e+01 2.530201e+00 1.990925e-01
      endloop
   endfacet
   facet normal -3.864184e-01 2.230987e-01 -8.949345e-01
      outer loop
         vertex -2.695248e+01 2.530201e+00 1.990925e-01
         vertex -1.566746e+01 2.207643e+01 1.990925e-01
         vertex -1.532164e+01 2.187677e+01 -1.387779e-16
      endloop
   endfacet
   facet normal -8.515242e-01 4.916278e-01 -1.822324e-01
      outer loop
         vertex -2.702290e+01 2.570857e+00 6.378187e-01
         vertex -1.573787e+01 2.211708e+01 6.378187e-01
         vertex -1.566746e+01 2.207643e+01 1.990925e-01
      endloop
   endfacet
   facet normal -4.935343e-01 -8.691232e-01 3.238477e-02
      outer loop
         vertex -2.703645e+01 2.570108e+00 4.111904e-01
         vertex -2.703475e+01 2.568723e+00 3.999559e-01
         vertex -2.702290e+01 2.570857e+00 6.378187e-01
      endloop
   endfacet
   facet normal -4.924400e-01 -8.697623e-01 3.187978e-02
      outer loop
         vertex -2.696152e+01 2.520051e+00 2.030917e-01
         vertex -2.693733e+01 2.505068e+00 1.680426e-01
         vertex -2.703475e+01 2.568723e+00 3.999559e-01
      endloop
   endfacet
   facet normal -4.920928e-01 -8.699680e-01 3.162951e-02
      outer loop
         vertex -2.681361e+01 2.431013e+00 5.606611e-02
         vertex -2.674961e+01 2.393685e+00 2.504914e-02
         vertex -2.693733e+01 2.505068e+00 1.680426e-01
      endloop
   endfacet
   facet normal 4.915914e-01 8.702025e-01 -3.294634e-02
      outer loop
         vertex -2.681361e+01 2.431013e+00 5.606611e-02
         vertex -2.662289e+01 2.321168e+00 3.516259e-04
         vertex -2.674961e+01 2.393685e+00 2.504914e-02
      endloop
   endfacet
   facet normal -1.565407e-01 2.169375e-01 -9.635523e-01
      outer loop
         vertex -2.681361e+01 2.431013e+00 5.606611e-02
         vertex -2.661478e+01 2.325854e+00 8.791421e-05
         vertex -2.662289e+01 2.321168e+00 3.516259e-04
      endloop
   endfacet
   facet normal -2.547433e-01 4.249435e-01 -8.686362e-01
      outer loop
         vertex -2.695248e+01 2.530201e+00 1.990925e-01
         vertex -2.660666e+01 2.330542e+00 -1.942890e-16
         vertex -2.661478e+01 2.325854e+00 8.791421e-05
      endloop
   endfacet
   facet normal 3.757668e-01 9.263625e-01 -2.553182e-02
      outer loop
         vertex -2.703645e+01 2.570108e+00 4.111904e-01
         vertex -2.702290e+01 2.570857e+00 6.378187e-01
         vertex -2.695248e+01 2.530201e+00 1.990925e-01
      endloop
   endfacet
   facet normal 0.000000e+00 0.000000e+00 0.000000e+00
      outer loop
         vertex -2.703645e+01 2.570108e+00 4.111904e-01
         vertex -2.702290e+01 2.570857e+00 6.378187e-01
         vertex -2.702290e+01 2.570857e+00 6.378187e-01
      endloop
   endfacet
   facet normal -7.571692e-01 5.184861e-01 -3.973247e-01
      outer loop
         vertex -2.695248e+01 2.530201e+00 1.990925e-01
         vertex -2.696152e+01 2.520051e+00 2.030917e-01
         vertex -2.703645e+01 2.570108e+00 4.111904e-01
      endloop
   endfacet
   facet normal 4.898385e-01 8.711809e-01 -3.319808e-02
      outer loop
         vertex -2.703475e+01 2.568723e+00 3.999559e-01
         vertex -2.703645e+01 2.570108e+00 4.111904e-01
         vertex -2.696152e+01 2.520051e+00 2.030917e-01
      endloop
   endfacet
   facet normal -6.066015e-01 2.424730e-01 -7.571271e-01
      outer loop
         vertex -2.695248e+01 2.530201e+00 1.990925e-01
         vertex -2.681361e+01 2.431013e+00 5.606611e-02
         vertex -2.696152e+01 2.520051e+00 2.030917e-01
      endloop
   endfacet
   facet normal 4.910109e-01 8.705209e-01 -3.319062e-02
      outer loop
         vertex -2.693733e+01 2.505068e+00 1.680426e-01
         vertex -2.696152e+01 2.520051e+00 2.030917e-01
         vertex -2.681361e+01 2.431013e+00 5.606611e-02
      endloop
   endfacet
   facet normal 4.070933e-01 8.865991e-01 -2.195839e-01
      outer loop
         vertex -2.695248e+01 2.530201e+00 1.990925e-01
         vertex -2.661478e+01 2.325854e+00 8.791421e-05
         vertex -2.681361e+01 2.431013e+00 5.606611e-02
      endloop
   endfacet
   facet normal -7.492317e-01 2.796952e-02 -6.617171e-01
      outer loop
         vertex -2.703720e+01 2.273148e+00 2.523242e-01
         vertex -2.699088e+01 2.460939e+00 2.078267e-01
         vertex -2.689021e+01 2.368522e+00 8.993434e-02
      endloop
   endfacet
   facet normal -7.492289e-01 2.795889e-02 -6.617208e-01
      outer loop
         vertex -2.698255e+01 2.222987e+00 1.883371e-01
         vertex -2.703720e+01 2.273148e+00 2.523242e-01
         vertex -2.689021e+01 2.368522e+00 8.993434e-02
      endloop
   endfacet
   facet normal -8.957481e-01 1.194251e-01 -4.282207e-01
      outer loop
         vertex -2.707821e+01 2.282695e+00 3.407724e-01
         vertex -2.706644e+01 2.478529e+00 3.707871e-01
         vertex -2.699088e+01 2.460939e+00 2.078267e-01
      endloop
   endfacet
   facet normal -8.957502e-01 1.194306e-01 -4.282147e-01
      outer loop
         vertex -2.703720e+01 2.273148e+00 2.523242e-01
         vertex -2.707821e+01 2.282695e+00 3.407724e-01
         vertex -2.699088e+01 2.460939e+00 2.078267e-01
      endloop
   endfacet
   facet normal 0.000000e+00 -0.000000e+00 0.000000e+00
      outer loop
         vertex -2.707821e+01 2.282695e+00 3.407724e-01
         vertex -2.701567e+01 2.094399e+00 3.358459e-01
         vertex -2.701567e+01 2.094399e+00 3.358459e-01
      endloop
   endfacet
   facet normal -0.000000e+00 0.000000e+00 0.000000e+00
      outer loop
         vertex -2.703720e+01 2.273148e+00 2.523242e-01
         vertex -2.701567e+01 2.094399e+00 3.358459e-01
         vertex -2.701567e+01 2.094399e+00 3.358459e-01
      endloop
   endfacet
   facet normal -0.000000e+00 0.000000e+00 0.000000e+00
      outer loop
         vertex -2.698255e+01 2.222987e+00 1.883371e-01
         vertex -2.701567e+01 2.094399e+00 3.358459e-01
         vertex -2.701567e+01 2.094399e+00 3.358459e-01
      endloop
   endfacet
   facet normal -6.262006e-01 -5.126237e-01 -5.874434e-01
      outer loop
         vertex -2.698255e+01 2.222987e+00 1.883371e-01
         vertex -2.686417e+01 2.181866e+00 9.802689e-02
         vertex -2.701567e+01 2.094399e+00 3.358459e-01
      endloop
   endfacet
   facet normal -2.825369e-01 -1.723056e-01 -9.436544e-01
      outer loop
         vertex -2.674961e+01 2.393685e+00 2.504914e-02
         vertex -2.662289e+01 2.321168e+00 3.516259e-04
         vertex -2.686417e+01 2.181866e+00 9.802689e-02
      endloop
   endfacet
   facet normal -4.435928e-01 3.247571e-01 -8.353193e-01
      outer loop
         vertex -2.689021e+01 2.368522e+00 8.993434e-02
         vertex -2.693733e+01 2.505068e+00 1.680426e-01
         vertex -2.674961e+01 2.393685e+00 2.504914e-02
      endloop
   endfacet
   facet normal -7.427896e-01 4.971354e-01 -4.484641e-01
      outer loop
         vertex -2.699088e+01 2.460939e+00 2.078267e-01
         vertex -2.703475e+01 2.568723e+00 3.999559e-01
         vertex -2.693733e+01 2.505068e+00 1.680426e-01
      endloop
   endfacet
   facet normal -9.512539e-01 3.051592e-01 4.465404e-02
      outer loop
         vertex -2.710640e+01 2.333069e+00 4.840523e-01
         vertex -2.702290e+01 2.570857e+00 6.378187e-01
         vertex -2.703475e+01 2.568723e+00 3.999559e-01
      endloop
   endfacet
   facet normal -9.468462e-01 -3.124738e-01 -7.643512e-02
      outer loop
         vertex -2.707821e+01 2.282695e+00 3.407724e-01
         vertex -2.701567e+01 2.094399e+00 3.358459e-01
         vertex -2.710640e+01 2.333069e+00 4.840523e-01
      endloop
   endfacet
   facet normal -6.762908e-01 1.758313e-01 -7.153420e-01
      outer loop
         vertex -2.693733e+01 2.505068e+00 1.680426e-01
         vertex -2.689021e+01 2.368522e+00 8.993434e-02
         vertex -2.699088e+01 2.460939e+00 2.078267e-01
      endloop
   endfacet
   facet normal -6.282928e-01 -1.209814e-01 -7.685127e-01
      outer loop
         vertex -2.686417e+01 2.181866e+00 9.802689e-02
         vertex -2.698255e+01 2.222987e+00 1.883371e-01
         vertex -2.689021e+01 2.368522e+00 8.993434e-02
      endloop
   endfacet
   facet normal -9.703172e-01 9.251738e-02 -2.234391e-01
      outer loop
         vertex -2.710640e+01 2.333069e+00 4.840523e-01
         vertex -2.706644e+01 2.478529e+00 3.707871e-01
         vertex -2.707821e+01 2.282695e+00 3.407724e-01
      endloop
   endfacet
   facet normal -8.294306e-01 -3.153431e-01 -4.610896e-01
      outer loop
         vertex -2.701567e+01 2.094399e+00 3.358459e-01
         vertex -2.703720e+01 2.273148e+00 2.523242e-01
         vertex -2.698255e+01 2.222987e+00 1.883371e-01
      endloop
   endfacet
   facet normal -8.814633e-01 -2.828638e-01 -3.781673e-01
      outer loop
         vertex -2.703720e+01 2.273148e+00 2.523242e-01
         vertex -2.701567e+01 2.094399e+00 3.358459e-01
         vertex -2.707821e+01 2.282695e+00 3.407724e-01
      endloop
   endfacet
   facet normal -4.029157e-01 -9.567974e-02 -9.102221e-01
      outer loop
         vertex -2.689021e+01 2.368522e+00 8.993434e-02
         vertex -2.674961e+01 2.393685e+00 2.504914e-02
         vertex -2.686417e+01 2.181866e+00 9.802689e-02
      endloop
   endfacet
   facet normal -8.058113e-01 4.186417e-01 -4.188165e-01
      outer loop
         vertex -2.706644e+01 2.478529e+00 3.707871e-01
         vertex -2.703475e+01 2.568723e+00 3.999559e-01
         vertex -2.699088e+01 2.460939e+00 2.078267e-01
      endloop
   endfacet
   facet normal -9.478624e-01 3.117612e-01 6.604388e-02
      outer loop
         vertex -2.706644e+01 2.478529e+00 3.707871e-01
         vertex -2.710640e+01 2.333069e+00 4.840523e-01
         vertex -2.703475e+01 2.568723e+00 3.999559e-01
      endloop
   endfacet
   facet normal 2.049549e-03 -9.832577e-01 -1.822091e-01
      outer loop
         vertex -1.155769e+01 -2.467960e+01 3.358459e-01
         vertex 1.128502e+01 -2.460665e+01 1.991150e-01
         vertex 1.128502e+01 -2.468794e+01 6.378187e-01
      endloop
   endfacet
   facet normal 2.313588e-03 -4.462225e-01 -8.949190e-01
      outer loop
         vertex -1.141100e+01 -2.442551e+01 5.012199e-02
         vertex 1.128502e+01 -2.420731e+01 1.526557e-16
         vertex 1.128502e+01 -2.460665e+01 1.991150e-01
      endloop
   endfacet
   facet normal 1.138611e-17 -2.238792e-01 -9.746169e-01
      outer loop
         vertex -1.141100e+01 -2.442551e+01 5.012199e-02
         vertex -1.128502e+01 -2.420731e+01 -1.110223e-16
         vertex 1.128502e+01 -2.420731e+01 1.526557e-16
      endloop
   endfacet
   facet normal -1.595219e-03 -7.468553e-01 -6.649847e-01
      outer loop
         vertex 1.128502e+01 -2.460665e+01 1.991150e-01
         vertex -1.155769e+01 -2.467960e+01 3.358459e-01
         vertex -1.141100e+01 -2.442551e+01 5.012199e-02
      endloop
   endfacet
   facet normal 0.000000e+00 -9.996184e-01 -2.762323e-02
      outer loop
         vertex 1.128502e+01 -2.468794e+01 6.378187e-01
         vertex -1.167407e+01 -2.468794e+01 6.378187e-01
         vertex -1.155769e+01 -2.467960e+01 3.358459e-01
      endloop
   endfacet
   facet normal 3.328513e-01 -6.649908e-01 -6.685785e-01
      outer loop
         vertex 1.154467e+01 -2.455404e+01 2.502867e-01
         vertex 1.135184e+01 -2.460658e+01 2.065376e-01
         vertex 1.138225e+01 -2.446998e+01 8.581489e-02
      endloop
   endfacet
   facet normal 3.328577e-01 -6.649845e-01 -6.685816e-01
      outer loop
         vertex 1.156127e+01 -2.447951e+01 1.844104e-01
         vertex 1.154467e+01 -2.455404e+01 2.502867e-01
         vertex 1.138225e+01 -2.446998e+01 8.581489e-02
      endloop
   endfacet
   facet normal 3.267533e-01 -8.422114e-01 -4.288499e-01
      outer loop
         vertex 1.155727e+01 -2.459552e+01 3.413463e-01
         vertex 1.137493e+01 -2.468259e+01 3.734105e-01
         vertex 1.135184e+01 -2.460658e+01 2.065376e-01
      endloop
   endfacet
   facet normal 3.267432e-01 -8.422237e-01 -4.288335e-01
      outer loop
         vertex 1.154467e+01 -2.455404e+01 2.502867e-01
         vertex 1.155727e+01 -2.459552e+01 3.413463e-01
         vertex 1.135184e+01 -2.460658e+01 2.065376e-01
      endloop
   endfacet
   facet normal 0.000000e+00 -0.000000e+00 0.000000e+00
      outer loop
         vertex 1.155727e+01 -2.459552e+01 3.413463e-01
         vertex 1.169403e+01 -2.444345e+01 3.358459e-01
         vertex 1.169403e+01 -2.444345e+01 3.358459e-01
      endloop
   endfacet
   facet normal 0.000000e+00 0.000000e+00 0.000000e+00
      outer loop
         vertex 1.154467e+01 -2.455404e+01 2.502867e-01
         vertex 1.169403e+01 -2.444345e+01 3.358459e-01
         vertex 1.169403e+01 -2.444345e+01 3.358459e-01
      endloop
   endfacet
   facet normal 0.000000e+00 0.000000e+00 0.000000e+00
      outer loop
         vertex 1.156127e+01 -2.447951e+01 1.844104e-01
         vertex 1.169403e+01 -2.444345e+01 3.358459e-01
         vertex 1.169403e+01 -2.444345e+01 3.358459e-01
      endloop
   endfacet
   facet normal 7.540090e-01 -2.792335e-01 -5.945578e-01
      outer loop
         vertex 1.156127e+01 -2.447951e+01 1.844104e-01
         vertex 1.153596e+01 -2.435219e+01 9.252173e-02
         vertex 1.169403e+01 -2.444345e+01 3.358459e-01
      endloop
   endfacet
   facet normal 2.172872e-01 -2.295199e-01 -9.487396e-01
      outer loop
         vertex 1.138225e+01 -2.446998e+01 8.581489e-02
         vertex 1.128502e+01 -2.420731e+01 1.526557e-16
         vertex 1.153596e+01 -2.435219e+01 9.252173e-02
      endloop
   endfacet
   facet normal -3.837880e-01 -4.120525e-01 -8.263895e-01
      outer loop
         vertex 1.138225e+01 -2.446998e+01 8.581489e-02
         vertex 1.128502e+01 -2.460665e+01 1.991150e-01
         vertex 1.128502e+01 -2.420731e+01 1.526557e-16
      endloop
   endfacet
   facet normal -4.307767e-01 -8.873511e-01 -1.644365e-01
      outer loop
         vertex 1.137493e+01 -2.468259e+01 3.734105e-01
         vertex 1.128502e+01 -2.468794e+01 6.378187e-01
         vertex 1.128502e+01 -2.460665e+01 1.991150e-01
      endloop
   endfacet
   facet normal 2.168460e-01 -9.747104e-01 5.401389e-02
      outer loop
         vertex 1.137493e+01 -2.468259e+01 3.734105e-01
         vertex 1.153270e+01 -2.464136e+01 4.840523e-01
         vertex 1.128502e+01 -2.468794e+01 6.378187e-01
      endloop
   endfacet
   facet normal 7.391326e-01 -6.678820e-01 -8.727327e-02
      outer loop
         vertex 1.155727e+01 -2.459552e+01 3.413463e-01
         vertex 1.169403e+01 -2.444345e+01 3.358459e-01
         vertex 1.153270e+01 -2.464136e+01 4.840523e-01
      endloop
   endfacet
   facet normal 8.259645e-02 -6.702259e-01 -7.375467e-01
      outer loop
         vertex 1.128502e+01 -2.460665e+01 1.991150e-01
         vertex 1.138225e+01 -2.446998e+01 8.581489e-02
         vertex 1.135184e+01 -2.460658e+01 2.065376e-01
      endloop
   endfacet
   facet normal 4.030120e-01 -4.815820e-01 -7.782417e-01
      outer loop
         vertex 1.153596e+01 -2.435219e+01 9.252173e-02
         vertex 1.156127e+01 -2.447951e+01 1.844104e-01
         vertex 1.138225e+01 -2.446998e+01 8.581489e-02
      endloop
   endfacet
   facet normal 3.884514e-01 -8.946964e-01 -2.205082e-01
      outer loop
         vertex 1.153270e+01 -2.464136e+01 4.840523e-01
         vertex 1.137493e+01 -2.468259e+01 3.734105e-01
         vertex 1.155727e+01 -2.459552e+01 3.413463e-01
      endloop
   endfacet
   facet normal 6.832393e-01 -5.630291e-01 -4.649542e-01
      outer loop
         vertex 1.169403e+01 -2.444345e+01 3.358459e-01
         vertex 1.154467e+01 -2.455404e+01 2.502867e-01
         vertex 1.156127e+01 -2.447951e+01 1.844104e-01
      endloop
   endfacet
   facet normal 6.810619e-01 -6.262261e-01 -3.794674e-01
      outer loop
         vertex 1.154467e+01 -2.455404e+01 2.502867e-01
         vertex 1.169403e+01 -2.444345e+01 3.358459e-01
         vertex 1.155727e+01 -2.459552e+01 3.413463e-01
      endloop
   endfacet
   facet normal 4.750422e-02 -9.065097e-01 -4.195038e-01
      outer loop
         vertex 1.135184e+01 -2.460658e+01 2.065376e-01
         vertex 1.137493e+01 -2.468259e+01 3.734105e-01
         vertex 1.128502e+01 -2.460665e+01 1.991150e-01
      endloop
   endfacet
endsolid
